<svg xmlns="http://www.w3.org/2000/svg" viewBox="0 0 1440 1000" fill="none"><title>PIXEL Cosmic — transparent decoration</title><defs><linearGradient id="trail"><stop stop-color="#4169FF" stop-opacity="0"/><stop offset=".4" stop-color="#7C3AED"/><stop offset="1" stop-color="#D946EF"/></linearGradient></defs><path d="M28.8 43v4h-3v3h-4v2h4v3h3v4h2v-4h3v-3h4v-2h-4v-3h-3v-4Z" fill="#4169FF" opacity=".5"/><rect x="1324.8" y="340" width="5" height="5" fill="#7C3AED" opacity=".35"/><rect x="230.4" y="630" width="7" height="7" fill="#A855F7" opacity=".35"/><rect x="1396.8" y="920" width="9" height="9" fill="#D946EF" opacity=".35"/><rect x="187.20000000000002" y="210" width="3" height="3" fill="#EC4899" opacity=".35"/><path d="M1224.0 493v4h-3v3h-4v2h4v3h3v4h2v-4h3v-3h4v-2h-4v-3h-3v-4Z" fill="#4169FF" opacity=".5"/><rect x="144.0" y="790" width="7" height="7" fill="#7C3AED" opacity=".35"/><rect x="1296.0" y="80" width="9" height="9" fill="#A855F7" opacity=".35"/><rect x="100.8" y="370" width="3" height="3" fill="#D946EF" opacity=".35"/><rect x="1368.0" y="660" width="5" height="5" fill="#EC4899" opacity=".35"/><path d="M57.6 943v4h-3v3h-4v2h4v3h3v4h2v-4h3v-3h4v-2h-4v-3h-3v-4Z" fill="#4169FF" opacity=".5"/><rect x="1195.2" y="240" width="9" height="9" fill="#7C3AED" opacity=".35"/><rect x="259.2" y="530" width="3" height="3" fill="#A855F7" opacity=".35"/><rect x="1267.2" y="820" width="5" height="5" fill="#D946EF" opacity=".35"/><rect x="216.0" y="110" width="7" height="7" fill="#EC4899" opacity=".35"/><path d="M1339.2 393v4h-3v3h-4v2h4v3h3v4h2v-4h3v-3h4v-2h-4v-3h-3v-4Z" fill="#4169FF" opacity=".5"/><rect x="172.8" y="690" width="3" height="3" fill="#7C3AED" opacity=".35"/><rect x="1166.4" y="980" width="5" height="5" fill="#A855F7" opacity=".35"/><rect x="129.6" y="270" width="7" height="7" fill="#D946EF" opacity=".35"/><rect x="1238.4" y="560" width="9" height="9" fill="#EC4899" opacity=".35"/><path d="M86.4 843v4h-3v3h-4v2h4v3h3v4h2v-4h3v-3h4v-2h-4v-3h-3v-4Z" fill="#4169FF" opacity=".5"/><rect x="1310.4" y="140" width="5" height="5" fill="#7C3AED" opacity=".35"/><rect x="43.2" y="430" width="7" height="7" fill="#A855F7" opacity=".35"/><rect x="1382.4" y="720" width="9" height="9" fill="#D946EF" opacity=".35"/><rect x="244.8" y="10" width="3" height="3" fill="#EC4899" opacity=".35"/><path d="M1209.6000000000001 293v4h-3v3h-4v2h4v3h3v4h2v-4h3v-3h4v-2h-4v-3h-3v-4Z" fill="#4169FF" opacity=".5"/><rect x="201.6" y="590" width="7" height="7" fill="#7C3AED" opacity=".35"/><rect x="1281.6000000000001" y="880" width="9" height="9" fill="#A855F7" opacity=".35"/><rect x="158.4" y="170" width="3" height="3" fill="#D946EF" opacity=".35"/><rect x="1353.6000000000001" y="460" width="5" height="5" fill="#EC4899" opacity=".35"/><path d="M115.2 743v4h-3v3h-4v2h4v3h3v4h2v-4h3v-3h4v-2h-4v-3h-3v-4Z" fill="#4169FF" opacity=".5"/><rect x="1180.8" y="40" width="9" height="9" fill="#7C3AED" opacity=".35"/><path d="M25 120l95 74M1230 450l95 74M65 800l95 74" stroke="url(#trail)" stroke-width="2" opacity=".6"/></svg>